# xmcd CD database file
#
# Track frame offsets:
#	150
#	17277
#	34466
#	51149
#	68088
#	84273
#	98858
#	119542
#	136136
#	153702
#	170387
#	185478
#	202303
#
# Disc length: 2878 seconds
#
# Revision: 0
# Processed by: cddbd v1.5.1PL2 Copyright (c) Steve Scherf et al.
# Submitted via: CDex 1.51
#
DISCID=b00b3c0d
DTITLE=Matt Scullion - Put It Down To Experience
DYEAR=2005
DGENRE=Country
TTITLE0=Feels Like Sunday
TTITLE1=Giddy Up
TTITLE2=Simple Things
TTITLE3=Barely Alive
TTITLE4=Love Is Like A Chevy
TTITLE5=Waycross
TTITLE6=Hard Earned $
TTITLE7=Put It Down To Experience
TTITLE8=Beautiful
TTITLE9=Running Out Of Reasons
TTITLE10=I Wanna Be
TTITLE11=Luckiest Man Alive
TTITLE12=First Thing On My Mind
EXTD=YEAR: 2005
EXTT0=
EXTT1=
EXTT2=
EXTT3=
EXTT4=
EXTT5=
EXTT6=
EXTT7=
EXTT8=
EXTT9=
EXTT10=
EXTT11=
EXTT12=
PLAYORDER=
